<svg xmlns="http://www.w3.org/2000/svg" xmlns:xlink="http://www.w3.org/1999/xlink" width="1085" height="336" viewBox="0 0 1085 336">
  <defs>
    <clipPath id="clip-Artboard_4">
      <rect width="1085" height="336"/>
    </clipPath>
  </defs>
  <g id="Artboard_4" data-name="Artboard – 4" clip-path="url(#clip-Artboard_4)">
    <path id="Path_47" data-name="Path 47" d="M84.333-397.457a6.572,6.572,0,0,1,4.833,1.974,6.737,6.737,0,0,1,1.974,4.969v58.808a6.737,6.737,0,0,1-1.974,4.969,6.572,6.572,0,0,1-4.833,1.974,6.512,6.512,0,0,1-4.9-1.974,6.865,6.865,0,0,1-1.906-4.969v-9.8l2.723.408a10.151,10.151,0,0,1-1.974,5.445,26.4,26.4,0,0,1-5.377,5.786,30.066,30.066,0,0,1-8.032,4.628,26.682,26.682,0,0,1-9.937,1.838,30.454,30.454,0,0,1-16.88-4.832,33.977,33.977,0,0,1-11.843-13.273A41.242,41.242,0,0,1,21.85-360.7a41.439,41.439,0,0,1,4.356-19.4,33.764,33.764,0,0,1,11.775-13.136A29.965,29.965,0,0,1,54.521-398,29.968,29.968,0,0,1,65.343-396.1a31.309,31.309,0,0,1,8.644,4.9,25.376,25.376,0,0,1,5.717,6.33,12.2,12.2,0,0,1,2.042,6.33l-4.22.408v-12.388a6.93,6.93,0,0,1,1.906-4.9A6.4,6.4,0,0,1,84.333-397.457Zm-27.77,61.53a19.575,19.575,0,0,0,11.231-3.267,22.07,22.07,0,0,0,7.555-8.917A28.628,28.628,0,0,0,78.071-360.7a28.51,28.51,0,0,0-2.723-12.66,22.166,22.166,0,0,0-7.555-8.848,19.572,19.572,0,0,0-11.231-3.267A19.661,19.661,0,0,0,45.4-382.211a21.97,21.97,0,0,0-7.623,8.848,28.509,28.509,0,0,0-2.723,12.66,28.627,28.627,0,0,0,2.723,12.592,22.07,22.07,0,0,0,7.555,8.917A19.574,19.574,0,0,0,56.563-335.927ZM146.953-398q9.665,0,14.974,4.016a20.939,20.939,0,0,1,7.419,10.754,50.211,50.211,0,0,1,2.11,15.043v36.482a6.737,6.737,0,0,1-1.974,4.969,6.572,6.572,0,0,1-4.833,1.974,6.512,6.512,0,0,1-4.9-1.974,6.865,6.865,0,0,1-1.906-4.969v-36.346a26.424,26.424,0,0,0-1.361-8.78,12.673,12.673,0,0,0-4.7-6.262q-3.335-2.382-9.325-2.383a19.6,19.6,0,0,0-9.8,2.383,17.9,17.9,0,0,0-6.6,6.262,16.44,16.44,0,0,0-2.382,8.78v36.346a6.737,6.737,0,0,1-1.974,4.969,6.572,6.572,0,0,1-4.833,1.974,6.512,6.512,0,0,1-4.9-1.974,6.865,6.865,0,0,1-1.906-4.969v-57.719a6.866,6.866,0,0,1,1.906-4.969,6.512,6.512,0,0,1,4.9-1.974,6.572,6.572,0,0,1,4.833,1.974,6.737,6.737,0,0,1,1.974,4.969v7.623l-2.45,1.361a19.707,19.707,0,0,1,3.335-6.058,32.923,32.923,0,0,1,5.785-5.717,28.326,28.326,0,0,1,7.623-4.22A25.629,25.629,0,0,1,146.953-398Zm56.221,66.295a6.865,6.865,0,0,1-1.906,4.969,6.512,6.512,0,0,1-4.9,1.974,6.572,6.572,0,0,1-4.833-1.974,6.737,6.737,0,0,1-1.974-4.969v-58.263a6.737,6.737,0,0,1,1.974-4.969,6.572,6.572,0,0,1,4.833-1.974,6.513,6.513,0,0,1,4.9,1.974,6.866,6.866,0,0,1,1.906,4.969Zm-6.943-74.19q-3.948,0-5.717-1.429t-1.77-4.833v-2.178q0-3.4,1.906-4.764a9.839,9.839,0,0,1,5.717-1.362q4.084,0,5.854,1.43t1.77,4.7v2.178q0,3.54-1.838,4.9T196.231-405.9Zm61.258,8.3q10.074,0,15.519,4.968a24.316,24.316,0,0,1,7.215,13.409l-2.178-.681.953-2.178a28.072,28.072,0,0,1,5.377-7.147,30.574,30.574,0,0,1,8.644-5.989,24.838,24.838,0,0,1,10.754-2.382q9.393,0,14.566,4.016a20.873,20.873,0,0,1,7.215,10.754,51.765,51.765,0,0,1,2.042,15.042v36.074a6.865,6.865,0,0,1-1.906,4.969,6.512,6.512,0,0,1-4.9,1.974,6.572,6.572,0,0,1-4.833-1.974,6.737,6.737,0,0,1-1.974-4.969v-35.938a27.865,27.865,0,0,0-1.293-8.713,12.553,12.553,0,0,0-4.492-6.33q-3.2-2.382-8.78-2.382a18.671,18.671,0,0,0-9.461,2.382,17.331,17.331,0,0,0-6.466,6.33,16.913,16.913,0,0,0-2.314,8.713v35.938a6.865,6.865,0,0,1-1.906,4.969,6.512,6.512,0,0,1-4.9,1.974,6.512,6.512,0,0,1-4.9-1.974,6.865,6.865,0,0,1-1.906-4.969v-36.074a27.862,27.862,0,0,0-1.293-8.712,12.331,12.331,0,0,0-4.424-6.262q-3.131-2.314-8.712-2.314a18.72,18.72,0,0,0-9.393,2.314,16.461,16.461,0,0,0-6.33,6.262,17.307,17.307,0,0,0-2.246,8.712v36.074a6.737,6.737,0,0,1-1.974,4.969,6.572,6.572,0,0,1-4.833,1.974,6.512,6.512,0,0,1-4.9-1.974,6.865,6.865,0,0,1-1.906-4.969v-57.719a6.866,6.866,0,0,1,1.906-4.969,6.512,6.512,0,0,1,4.9-1.974,6.572,6.572,0,0,1,4.833,1.974,6.737,6.737,0,0,1,1.974,4.969v8.032l-2.586,1.5a23.061,23.061,0,0,1,3.131-6.125,26.178,26.178,0,0,1,5.513-5.718,30.547,30.547,0,0,1,7.419-4.22A23.606,23.606,0,0,1,257.489-397.593ZM379.325-323.4a39.264,39.264,0,0,1-19.535-4.7,32.821,32.821,0,0,1-12.932-12.932,38.268,38.268,0,0,1-4.56-18.854q0-11.979,4.833-20.487a34.4,34.4,0,0,1,12.66-13.068A32.352,32.352,0,0,1,376.33-398a31.046,31.046,0,0,1,12.592,2.655A34.056,34.056,0,0,1,399.608-388a35.539,35.539,0,0,1,7.351,11.026,36.3,36.3,0,0,1,2.859,13.817,6.115,6.115,0,0,1-2.178,4.492,7.049,7.049,0,0,1-4.764,1.77H350.057l-3.267-11.571h51.184l-2.586,2.451v-3.4a15.274,15.274,0,0,0-3.267-8.372,19.53,19.53,0,0,0-7.011-5.581,20.2,20.2,0,0,0-8.78-1.974,24.4,24.4,0,0,0-7.9,1.294,17.072,17.072,0,0,0-6.67,4.152,20.96,20.96,0,0,0-4.628,7.555,33.239,33.239,0,0,0-1.77,11.639,26.272,26.272,0,0,0,3.131,13.069,22.408,22.408,0,0,0,8.44,8.644,23.267,23.267,0,0,0,11.843,3.063,27.8,27.8,0,0,0,8.168-1.021,20.269,20.269,0,0,0,5.445-2.519q2.178-1.5,3.812-2.859a8.392,8.392,0,0,1,4.084-1.226,5.426,5.426,0,0,1,4.084,1.7,5.606,5.606,0,0,1,1.634,4.016q0,2.995-2.995,5.445a32.932,32.932,0,0,1-10.142,6.262A34.562,34.562,0,0,1,379.325-323.4ZM420.3-335.927a7.246,7.246,0,0,1-1.089-4.424,5.466,5.466,0,0,1,2.859-4.288,6.156,6.156,0,0,1,4.016-1.021,6.6,6.6,0,0,1,4.016,2.11,30.385,30.385,0,0,0,8.508,6.671,24.319,24.319,0,0,0,11.367,2.45,27.416,27.416,0,0,0,5.581-.885,10.888,10.888,0,0,0,4.9-2.723,7.685,7.685,0,0,0,2.042-5.785,7.11,7.11,0,0,0-2.178-5.445A16.548,16.548,0,0,0,454.6-352.6q-3.539-1.293-7.623-2.382-4.356-1.225-8.78-2.722a33.329,33.329,0,0,1-7.964-3.88,18.941,18.941,0,0,1-5.785-6.194,18.222,18.222,0,0,1-2.246-9.393,17.4,17.4,0,0,1,3.607-11.027,24.165,24.165,0,0,1,9.393-7.215A30.494,30.494,0,0,1,447.8-398a36.39,36.39,0,0,1,8.3,1.021,34.692,34.692,0,0,1,8.44,3.2,23.968,23.968,0,0,1,7.079,5.718,7.823,7.823,0,0,1,1.566,4.22,4.908,4.908,0,0,1-2.246,4.356,5.434,5.434,0,0,1-3.948,1.225,6,6,0,0,1-3.812-1.5,17.5,17.5,0,0,0-6.67-5.105,22.329,22.329,0,0,0-9.257-1.838,20.736,20.736,0,0,0-5.377.749,10.263,10.263,0,0,0-4.7,2.654,7.565,7.565,0,0,0-1.906,5.582,7,7,0,0,0,2.246,5.445,17.987,17.987,0,0,0,5.922,3.4,76.711,76.711,0,0,0,8.032,2.451q4.22,1.088,8.372,2.587a30.737,30.737,0,0,1,7.487,3.879,18.675,18.675,0,0,1,5.445,6.126,19.08,19.08,0,0,1,2.11,9.461A17.266,17.266,0,0,1,471.008-333a24.748,24.748,0,0,1-9.8,7.147,32.261,32.261,0,0,1-12.456,2.45,45.022,45.022,0,0,1-15.451-2.791A28.337,28.337,0,0,1,420.3-335.927Zm105.364-61.666q9.393,0,14.566,4.016a21.257,21.257,0,0,1,7.283,10.822,50.392,50.392,0,0,1,2.11,14.975v36.074a6.736,6.736,0,0,1-1.974,4.969,6.572,6.572,0,0,1-4.833,1.974,6.512,6.512,0,0,1-4.9-1.974,6.865,6.865,0,0,1-1.906-4.969v-36.074a27.862,27.862,0,0,0-1.293-8.712,12.186,12.186,0,0,0-4.492-6.262q-3.2-2.314-8.916-2.314a19.1,19.1,0,0,0-9.461,2.314,16.338,16.338,0,0,0-6.4,6.262,17.306,17.306,0,0,0-2.246,8.712v36.074a6.736,6.736,0,0,1-1.974,4.969,6.572,6.572,0,0,1-4.833,1.974,6.512,6.512,0,0,1-4.9-1.974,6.865,6.865,0,0,1-1.906-4.969v-86.851a6.866,6.866,0,0,1,1.906-4.969,6.512,6.512,0,0,1,4.9-1.974,6.572,6.572,0,0,1,4.833,1.974,6.737,6.737,0,0,1,1.974,4.969v37.163l-2.45,1.361a22.123,22.123,0,0,1,3.2-6.126,27.659,27.659,0,0,1,5.581-5.718,28.926,28.926,0,0,1,7.419-4.152A24.133,24.133,0,0,1,525.664-397.593Zm110.945,37.027a37.832,37.832,0,0,1-4.833,19.262,35.407,35.407,0,0,1-13,13.136A35.788,35.788,0,0,1,600.4-323.4a35.893,35.893,0,0,1-18.309-4.765A35.249,35.249,0,0,1,569.021-341.3a37.833,37.833,0,0,1-4.833-19.262,38.107,38.107,0,0,1,4.833-19.4,35.771,35.771,0,0,1,13.068-13.2A35.508,35.508,0,0,1,600.4-398a35.4,35.4,0,0,1,18.377,4.832,35.937,35.937,0,0,1,13,13.2A38.106,38.106,0,0,1,636.609-360.566Zm-13.613,0a26.837,26.837,0,0,0-2.995-13,23.058,23.058,0,0,0-8.1-8.712,21.214,21.214,0,0,0-11.5-3.2,20.972,20.972,0,0,0-11.367,3.2,23.59,23.59,0,0,0-8.168,8.712,26.352,26.352,0,0,0-3.063,13,26.165,26.165,0,0,0,3.063,12.8,22.916,22.916,0,0,0,8.168,8.712,21.307,21.307,0,0,0,11.367,3.131,21.555,21.555,0,0,0,11.5-3.131,22.413,22.413,0,0,0,8.1-8.712A26.644,26.644,0,0,0,623-360.566ZM688.2-398q9.665,0,14.974,4.016a20.939,20.939,0,0,1,7.419,10.754,50.207,50.207,0,0,1,2.11,15.043v36.482a6.736,6.736,0,0,1-1.974,4.969,6.571,6.571,0,0,1-4.833,1.974,6.511,6.511,0,0,1-4.9-1.974,6.864,6.864,0,0,1-1.906-4.969v-36.346a26.422,26.422,0,0,0-1.361-8.78,12.673,12.673,0,0,0-4.7-6.262q-3.335-2.382-9.325-2.383a19.6,19.6,0,0,0-9.8,2.383,17.894,17.894,0,0,0-6.6,6.262,16.44,16.44,0,0,0-2.382,8.78v36.346a6.736,6.736,0,0,1-1.974,4.969,6.571,6.571,0,0,1-4.832,1.974,6.513,6.513,0,0,1-4.9-1.974,6.866,6.866,0,0,1-1.906-4.969v-57.719a6.866,6.866,0,0,1,1.906-4.969,6.513,6.513,0,0,1,4.9-1.974,6.572,6.572,0,0,1,4.832,1.974,6.737,6.737,0,0,1,1.974,4.969v7.623l-2.451,1.361a19.712,19.712,0,0,1,3.335-6.058,32.921,32.921,0,0,1,5.785-5.717,28.328,28.328,0,0,1,7.623-4.22A25.628,25.628,0,0,1,688.2-398Z" transform="translate(359.029 529.23)" fill="#fff"/>
    <path id="Path_49" data-name="Path 49" d="M27.885-153.089a2.61,2.61,0,0,1-1.973-.814,2.872,2.872,0,0,1-.777-2.067,2.872,2.872,0,0,1,.777-2.067,2.61,2.61,0,0,1,1.973-.814H70.161a2.658,2.658,0,0,1,2,.846,2.842,2.842,0,0,1,.807,2.036,16.645,16.645,0,0,1-.9,5.637,33.6,33.6,0,0,1-12.856,16.285,2.743,2.743,0,0,1-2.332.438,3.183,3.183,0,0,1-1.973-1.441,3.038,3.038,0,0,1-.389-2.317,3.018,3.018,0,0,1,1.286-1.942,25.236,25.236,0,0,0,10.225-13.216q.12-.564-.3-.564Zm13.753,8.831a3.51,3.51,0,0,1,.987-2.349,2.987,2.987,0,0,1,2.242-.971,2.893,2.893,0,0,1,2.212.971,3.124,3.124,0,0,1,.837,2.349q-.3,13.153-3.438,20.293A23.8,23.8,0,0,1,34.044-112.69a2.929,2.929,0,0,1-2.362.251,3.155,3.155,0,0,1-1.884-1.566,2.85,2.85,0,0,1-.239-2.286,3.054,3.054,0,0,1,1.435-1.848,18.821,18.821,0,0,0,7.983-9.207Q41.4-133.234,41.638-144.257Zm43.473-13.654h33.367a2.871,2.871,0,0,1,2.153.94,3.149,3.149,0,0,1,.9,2.255,3.258,3.258,0,0,1-.9,2.286,2.829,2.829,0,0,1-2.153.971H85.111a2.829,2.829,0,0,1-2.153-.971,3.258,3.258,0,0,1-.9-2.286,3.15,3.15,0,0,1,.9-2.255A2.871,2.871,0,0,1,85.111-157.911Zm-4.186,43.217a2.871,2.871,0,0,1-2.153-.94,3.15,3.15,0,0,1-.9-2.255,3.258,3.258,0,0,1,.9-2.286,2.829,2.829,0,0,1,2.153-.971h41.738a2.829,2.829,0,0,1,2.153.971,3.258,3.258,0,0,1,.9,2.286,3.149,3.149,0,0,1-.9,2.255,2.871,2.871,0,0,1-2.153.94Zm56.867,2.443a3.219,3.219,0,0,1-2.511.344,3.736,3.736,0,0,1-2.153-1.535,3.2,3.2,0,0,1-.448-2.443,2.734,2.734,0,0,1,1.405-1.942,74.035,74.035,0,0,0,19.673-16.723q.3-.313-.12-.689-8.372-7.015-13.574-10.961a3.18,3.18,0,0,1-1.2-2.129,2.861,2.861,0,0,1,.658-2.317,3.136,3.136,0,0,1,2.183-1.221,3.252,3.252,0,0,1,2.422.658q6.4,4.76,13.335,10.585a.459.459,0,0,0,.718-.062,75.832,75.832,0,0,0,8.132-17.85,3.572,3.572,0,0,1,1.615-2.1,3.362,3.362,0,0,1,2.571-.407,3.043,3.043,0,0,1,2,1.5,2.99,2.99,0,0,1,.269,2.505,78.48,78.48,0,0,1-9.328,20.857.51.51,0,0,0,.06.752q7.714,6.827,13.155,12.088a3.223,3.223,0,0,1,.987,2.317,3.221,3.221,0,0,1-.927,2.38,3.178,3.178,0,0,1-2.3,1.033,3.059,3.059,0,0,1-2.3-.908q-6.04-5.888-12.438-11.525-.478-.376-.777,0A77.982,77.982,0,0,1,137.792-112.252Zm50.23-20.794a2.937,2.937,0,0,1-2.213-.94,3.227,3.227,0,0,1-.9-2.317,3.227,3.227,0,0,1,.9-2.317,2.938,2.938,0,0,1,2.213-.94h42.815a2.937,2.937,0,0,1,2.212.94,3.227,3.227,0,0,1,.9,2.317,3.227,3.227,0,0,1-.9,2.317,2.937,2.937,0,0,1-2.212.94Zm97.649-19.416a2.952,2.952,0,0,1,1.913,1.347,3.086,3.086,0,0,1,.478,2.349q-3.528,17.475-13.215,26.087t-27.985,10.8a3.031,3.031,0,0,1-2.272-.689,3.179,3.179,0,0,1-1.2-2.129,3.032,3.032,0,0,1,.568-2.286,2.661,2.661,0,0,1,1.943-1.159q16.5-2,24.756-9.176t11.421-22.517a3.554,3.554,0,0,1,1.316-2.1A2.7,2.7,0,0,1,285.67-152.462Zm-42.217,13.09a3.011,3.011,0,0,1-1.914-1.284,2.9,2.9,0,0,1-.478-2.286,3.1,3.1,0,0,1,1.286-2,2.738,2.738,0,0,1,2.242-.5q8.491,1.628,13.753,2.756a2.769,2.769,0,0,1,1.854,1.315,3.142,3.142,0,0,1,.419,2.317,3.023,3.023,0,0,1-1.256,1.973,2.716,2.716,0,0,1-2.213.47Q251.945-137.743,243.454-139.372Zm18.238-18.665a2.979,2.979,0,0,1,1.914,1.315,2.993,2.993,0,0,1,.478,2.318,2.958,2.958,0,0,1-1.316,1.973,2.882,2.882,0,0,1-2.272.47q-7.714-1.566-14.411-2.756A2.9,2.9,0,0,1,244.2-156a2.97,2.97,0,0,1-.448-2.286,3.263,3.263,0,0,1,1.256-2.036,2.6,2.6,0,0,1,2.213-.532Q251.706-160.041,261.692-158.036Zm65.956,39.208q.478,0,.478-.5v-9.708q0-.564-.478-.564h-23.56a2.475,2.475,0,0,1-1.854-.814,2.714,2.714,0,0,1-.777-1.942,2.714,2.714,0,0,1,.777-1.941,2.476,2.476,0,0,1,1.854-.814h23.56q.478,0,.478-.564v-7.579q0-.564-.478-.564H301.636a2.571,2.571,0,0,1-1.884-.814,2.662,2.662,0,0,1-.807-1.942,2.662,2.662,0,0,1,.807-1.941,2.57,2.57,0,0,1,1.884-.814h29.48a3.248,3.248,0,0,1,2.392,1.033,3.4,3.4,0,0,1,1.016,2.474v29.062a3.4,3.4,0,0,1-1.016,2.474,3.248,3.248,0,0,1-2.392,1.033h-29.48a2.591,2.591,0,0,1-1.913-.783,2.685,2.685,0,0,1-.777-1.973,2.791,2.791,0,0,1,.777-2,2.542,2.542,0,0,1,1.913-.814Zm24.4-33.884a3.089,3.089,0,0,1-1.585-1.91,3.409,3.409,0,0,1,.209-2.537,3.172,3.172,0,0,1,1.913-1.628,3.1,3.1,0,0,1,2.512.188q6.937,3.7,12.737,7.2a3.1,3.1,0,0,1,1.525,2,3.52,3.52,0,0,1-.329,2.568,3.009,3.009,0,0,1-1.914,1.6,3.1,3.1,0,0,1-2.452-.345Q358.862-149.08,352.045-152.713Zm41.26-.814a3.1,3.1,0,0,1,1.943,1.409,3.28,3.28,0,0,1,.448,2.411q-6.936,32.131-41.14,36.578a2.864,2.864,0,0,1-2.332-.658,3.344,3.344,0,0,1-1.2-2.224,3.138,3.138,0,0,1,.568-2.349,2.913,2.913,0,0,1,2-1.221q15.129-2.13,23.919-9.833t12.139-21.734a3.069,3.069,0,0,1,1.375-1.942A2.951,2.951,0,0,1,393.305-153.527Z" transform="translate(674.338 399.301)" fill="#fff"/>
    <path id="Path_23" data-name="Path 23" d="M38.876-241.767a11.425,11.425,0,0,1,4.737,2.269,4.74,4.74,0,0,1,1.4,3.6,13.1,13.1,0,0,1-.4,2.8,55.655,55.655,0,0,0-1.6,12.01,32.081,32.081,0,0,0,2.135,12.544,10.9,10.9,0,0,0,1.535,2.869,2.273,2.273,0,0,0,1.8.867q1.334,0,3.47-2.4a44.766,44.766,0,0,0,7.34-11.743,41.1,41.1,0,0,0,2.936-12.144q.4-4.137,1.334-5.2a2.851,2.851,0,0,1,1.735-.668,33.82,33.82,0,0,1,3.47-.133,28.81,28.81,0,0,1,5,.667,3.06,3.06,0,0,1,1.935,1.335,6.526,6.526,0,0,1,.534,3.069l-.133,6.272q0,2-.133,5.871-.4,12.011-.667,17.882a37.868,37.868,0,0,1-2.8,11.743,5.289,5.289,0,0,1-1.468,1.134,5.826,5.826,0,0,1-2.135.867q-.267,0-1.134-.867a8.443,8.443,0,0,1-1.268-1.535q-.934-2.135-2.135-5.738L63.3-198.931l-.267-.8-.4.4L60.495-198a14.033,14.033,0,0,1-3.47,2.135,13.848,13.848,0,0,1-7.34,1.868,18.833,18.833,0,0,1-10.142-3,21.486,21.486,0,0,1-7.606-8.207A36.975,36.975,0,0,1,27.4-223.752a78.723,78.723,0,0,1,1.468-13.478A4.99,4.99,0,0,1,31.4-240.7a7.687,7.687,0,0,1,4.671-1.468A10.652,10.652,0,0,1,38.876-241.767Zm97.15,40.968q-.267-.267-2.936-3.47-4.4,10.276-6.272,13.745-2.936,6-7.873,6.005a13.62,13.62,0,0,1-5.471-1.468,22.6,22.6,0,0,1-8.541-7.206,36.6,36.6,0,0,1-5.071-10.943q-2.669-9.074-4.8-18.949a11.253,11.253,0,0,1-.267-1.868,5.676,5.676,0,0,1,3.2-5.071,8.8,8.8,0,0,1,4-1.2,8.8,8.8,0,0,1,4,1.2,13.882,13.882,0,0,1,5.271,4.337,12.1,12.1,0,0,1,1.8,6.472,34.9,34.9,0,0,0,1.868,8.34q1.735,5.4,2.135,5.672.4-.534,1.468-1.735a10.719,10.719,0,0,0,1.6-2.269l2.4-4.938a75.574,75.574,0,0,1,5.338-9.741,10.829,10.829,0,0,1,3.8-3.6,9.487,9.487,0,0,1,4.6-1.2q4.27,0,8.007,3.737,1.068,1.2,2,5.071.4,1.868.934,4.938A54.807,54.807,0,0,0,149.5-205.2q.8,2.269,2.669,2.269,1.735,0,3.069-2.135,3.2-5.6,6.939-13.612a86.026,86.026,0,0,1,4.537-9.074,70.783,70.783,0,0,1,7.34-9.742,11.012,11.012,0,0,1,3.6-2.736,8.052,8.052,0,0,1,4.137-1q1.334.134,2.135,2.4a15.163,15.163,0,0,1,.8,5.071,17.97,17.97,0,0,1-.267,2.936,31.2,31.2,0,0,1-1.735,5.738q-1.068,2.536-3.069,6.939-2.4,5.2-3.069,6.806l-1.735,2.669q-4.938,7.607-7.34,10.676a43.012,43.012,0,0,1-8.808,8.007,7.092,7.092,0,0,1-4.27,1.468,9.157,9.157,0,0,1-3.6-.734,23.728,23.728,0,0,1-3.336-1.735q-1.6-1-2.4-1.535a33.154,33.154,0,0,1-6.939-6.005A18.775,18.775,0,0,0,136.026-200.8Zm87.141,2q4.4-7.473,4.4-18.549,0-3.336-.534-10.142v-13.745q0-4.27,3.069-4.27a6.043,6.043,0,0,1,2.135.4q6.806,2.936,7.74,6.272a73.434,73.434,0,0,1,3.336,21.485,59.46,59.46,0,0,1-4.27,22.286,16.676,16.676,0,0,1-7.006,8.407,20.193,20.193,0,0,1-10.476,2.8,22.26,22.26,0,0,1-12.411-3.47,23,23,0,0,1-10.809-16.815q-.667-5.471-1.2-8.407-1.335-7.873-1.735-12.277a5.907,5.907,0,0,1,2.135-5,8.149,8.149,0,0,1,5.471-1.935,7.55,7.55,0,0,1,2.4.4q4.938,1.735,6.806,4.937t1.735,8.674q-.267,4.271-.267,6.406,0,7.606,3.069,12.544a7.718,7.718,0,0,0,1.468,2q.934.934,1.2.8a4.123,4.123,0,0,0,2.068-.934A7.407,7.407,0,0,0,223.167-198.8Z" transform="translate(33.951 383.244)" fill="#fff"/>
    <path id="Subtraction_2" data-name="Subtraction 2" d="M161,322a163.389,163.389,0,0,1-16.461-.832,161.258,161.258,0,0,1-15.987-2.439c-5.188-1.062-10.38-2.4-15.429-3.967-5-1.554-9.974-3.375-14.792-5.414-4.775-2.019-9.51-4.3-14.074-6.779-4.532-2.462-9-5.175-13.275-8.065-4.258-2.876-8.428-5.995-12.395-9.268s-7.8-6.761-11.433-10.391-7.127-7.477-10.391-11.433-6.391-8.135-9.269-12.395c-2.889-4.277-5.6-8.743-8.064-13.275-2.479-4.563-4.76-9.3-6.78-14.073-2.038-4.818-3.86-9.795-5.414-14.792-1.57-5.05-2.905-10.241-3.967-15.429a161.27,161.27,0,0,1-2.44-15.986,163.352,163.352,0,0,1,0-32.922,161.318,161.318,0,0,1,2.44-15.986c1.062-5.188,2.4-10.379,3.967-15.429,1.554-5,3.376-9.974,5.414-14.792,2.02-4.775,4.3-9.51,6.78-14.074,2.462-4.532,5.175-9,8.064-13.275,2.878-4.259,6-8.43,9.269-12.394s6.763-7.806,10.391-11.433,7.474-7.124,11.433-10.391,8.136-6.391,12.395-9.268c4.277-2.889,8.742-5.6,13.275-8.065,4.564-2.479,9.3-4.76,14.074-6.779,4.818-2.038,9.794-3.86,14.792-5.414,5.049-1.571,10.241-2.905,15.429-3.967A161.2,161.2,0,0,1,144.539.832a163.345,163.345,0,0,1,32.922,0,161.167,161.167,0,0,1,15.986,2.439c5.188,1.062,10.38,2.4,15.429,3.967,5,1.554,9.974,3.376,14.792,5.414,4.775,2.019,9.51,4.3,14.074,6.779,4.532,2.462,9,5.175,13.274,8.065,4.26,2.878,8.43,6,12.394,9.268s7.8,6.761,11.434,10.391,7.126,7.476,10.391,11.433,6.392,8.136,9.268,12.394c2.889,4.276,5.6,8.742,8.065,13.275,2.479,4.563,4.76,9.3,6.78,14.074,2.038,4.818,3.86,9.795,5.414,14.792,1.57,5.05,2.905,10.241,3.967,15.429a161.477,161.477,0,0,1,2.439,15.986,163.354,163.354,0,0,1,0,32.922,161.447,161.447,0,0,1-2.439,15.986c-1.062,5.188-2.4,10.379-3.967,15.429-1.554,5-3.376,9.974-5.414,14.792-2.019,4.775-4.3,9.51-6.78,14.073-2.462,4.532-5.175,9-8.065,13.275-2.877,4.258-5.995,8.429-9.268,12.395s-6.758,7.8-10.391,11.433-7.479,7.129-11.434,10.391-8.135,6.392-12.394,9.268c-4.277,2.889-8.742,5.6-13.274,8.065-4.564,2.479-9.3,4.76-14.074,6.779-4.818,2.039-9.794,3.86-14.792,5.414-5.049,1.571-10.241,2.905-15.429,3.967a161.2,161.2,0,0,1-15.986,2.439A163.38,163.38,0,0,1,161,322Zm0-306.543a147.892,147.892,0,0,0-14.881.752,145.649,145.649,0,0,0-14.451,2.206c-4.693.96-9.386,2.167-13.949,3.586-4.512,1.4-9.012,3.05-13.372,4.895-4.317,1.825-8.6,3.887-12.723,6.128-4.094,2.224-8.131,4.677-12,7.29-3.85,2.6-7.619,5.42-11.2,8.379S61.365,54.8,58.085,58.085s-6.443,6.76-9.394,10.336-5.778,7.354-8.379,11.2c-2.615,3.871-5.068,7.909-7.291,12-2.239,4.126-4.3,8.405-6.128,12.723C25.051,108.7,23.4,113.2,22,117.72c-1.42,4.567-2.626,9.259-3.586,13.948a146.155,146.155,0,0,0-2.206,14.451,147.675,147.675,0,0,0,0,29.763,146.111,146.111,0,0,0,2.206,14.451c.959,4.689,2.166,9.381,3.586,13.948,1.405,4.516,3.052,9.015,4.895,13.372,1.827,4.319,3.889,8.6,6.128,12.723,2.224,4.093,4.677,8.13,7.291,12,2.6,3.852,5.421,7.621,8.379,11.2s6.112,7.053,9.394,10.336,6.758,6.441,10.336,9.394,7.355,5.777,11.2,8.379c3.871,2.615,7.908,5.067,12,7.29,4.125,2.24,8.405,4.3,12.723,6.129C108.7,296.95,113.2,298.6,117.72,300c4.566,1.42,9.259,2.626,13.949,3.587a146.012,146.012,0,0,0,14.451,2.2,147.6,147.6,0,0,0,29.762,0,145.981,145.981,0,0,0,14.451-2.2c4.689-.96,9.382-2.166,13.949-3.587,4.515-1.4,9.015-3.052,13.372-4.894,4.319-1.828,8.6-3.89,12.722-6.129,4.094-2.224,8.13-4.677,12-7.29,3.852-2.6,7.622-5.422,11.2-8.379s7.055-6.113,10.335-9.394,6.441-6.758,9.394-10.336,5.776-7.352,8.379-11.2c2.614-3.87,5.067-7.907,7.291-12,2.239-4.122,4.3-8.4,6.128-12.723C296.95,213.3,298.6,208.8,300,204.281c1.42-4.567,2.626-9.26,3.586-13.948.972-4.751,1.714-9.613,2.206-14.451a147.812,147.812,0,0,0,0-29.763c-.492-4.837-1.234-9.7-2.206-14.451-.96-4.689-2.167-9.382-3.586-13.948-1.406-4.517-3.052-9.015-4.895-13.372-1.826-4.318-3.889-8.6-6.128-12.723-2.223-4.091-4.676-8.129-7.291-12-2.6-3.85-5.42-7.619-8.379-11.2s-6.113-7.055-9.394-10.336-6.757-6.441-10.335-9.394-7.353-5.776-11.2-8.379c-3.868-2.612-7.905-5.065-12-7.29-4.122-2.24-8.4-4.3-12.722-6.128-4.36-1.845-8.86-3.492-13.372-4.895-4.563-1.419-9.257-2.626-13.949-3.586a145.618,145.618,0,0,0-14.451-2.206A147.912,147.912,0,0,0,161,15.457Z" transform="translate(9 7)" fill="#fff"/>
  </g>
</svg>
