<svg xmlns="http://www.w3.org/2000/svg" width="243" height="243.002" viewBox="0 0 243 243.002">
  <g id="open-book" transform="translate(-0.002 0)">
    <g id="Group_13" data-name="Group 13" transform="translate(0.002 0)">
      <g id="Group_12" data-name="Group 12" transform="translate(0 0)">
        <path id="Path_6" data-name="Path 6" d="M290.215,200.539a.784.784,0,0,0,1.054.342A67.155,67.155,0,0,1,298.2,197.8a.784.784,0,0,0-.473-1.495,67.19,67.19,0,0,0-7.169,3.183A.784.784,0,0,0,290.215,200.539Z" transform="translate(-127.498 -94.768)"/>
        <path id="Path_7" data-name="Path 7" d="M290.915,98.568a.782.782,0,0,0,.355-.085A67.152,67.152,0,0,1,298.2,95.4a.784.784,0,0,0-.473-1.495,67.19,67.19,0,0,0-7.169,3.183.783.783,0,0,0,.356,1.481Z" transform="translate(-127.498 -45.324)"/>
        <path id="Path_8" data-name="Path 8" d="M238.952,60.752a4.049,4.049,0,0,0-4.05,4.05v157.95a12.165,12.165,0,0,1-12.15,12.15h-97.2v-9.319c5.905-2.065,21.287-6.881,36.45-6.881,35.28,0,59.235,7.813,59.474,7.893a4.05,4.05,0,0,0,5.326-3.844V44.552A4.044,4.044,0,0,0,223.63,40.6s-3.175-.709-8.6-1.705a4.05,4.05,0,0,0-1.466,7.966c2.07.381,3.8.717,5.14.984V217.369A228.722,228.722,0,0,0,162,210.6c-17.646,0-34.98,5.8-40.342,7.76a94.877,94.877,0,0,0-36.608-7.76,272.92,272.92,0,0,0-60.75,6.938V47.686A266.581,266.581,0,0,1,85.051,40.5a87.81,87.81,0,0,1,32.4,6.674V206.551a4.049,4.049,0,0,0,6.136,3.471c.4-.239,40.528-24.207,76.144-36.077a4.05,4.05,0,0,0,2.77-3.843V4.052A4.056,4.056,0,0,0,197.026.257c-32.4,12.154-65.192,32.558-65.521,32.76a4.05,4.05,0,1,0,4.293,6.869c.3-.19,28.824-17.937,58.6-29.913V167.2c-27.645,9.607-56.51,25.292-68.85,32.315V44.552a4.054,4.054,0,0,0-2.24-3.625A93.78,93.78,0,0,0,85.051,32.4,262.855,262.855,0,0,0,19.138,40.66,4.047,4.047,0,0,0,16.2,44.552v178.2a4.048,4.048,0,0,0,4.05,4.05,3.991,3.991,0,0,0,1.11-.158,260.161,260.161,0,0,1,63.69-7.942,87.616,87.616,0,0,1,32.4,6.678V234.9h-97.2A12.165,12.165,0,0,1,8.1,222.752V64.8a4.05,4.05,0,1,0-8.1,0v157.95A20.273,20.273,0,0,0,20.252,243h202.5A20.273,20.273,0,0,0,243,222.752V64.8A4.05,4.05,0,0,0,238.952,60.752Z" transform="translate(-0.002 0)"/>
        <path id="Path_9" data-name="Path 9" d="M290.215,149.339a.784.784,0,0,0,1.054.342A67.16,67.16,0,0,1,298.2,146.6a.784.784,0,0,0-.473-1.495,67.193,67.193,0,0,0-7.169,3.183A.784.784,0,0,0,290.215,149.339Z" transform="translate(-127.498 -70.046)"/>
        <path id="Path_10" data-name="Path 10" d="M290.215,251.739a.784.784,0,0,0,1.054.342A67.155,67.155,0,0,1,298.2,249a.784.784,0,0,0-.473-1.495,67.189,67.189,0,0,0-7.169,3.183A.784.784,0,0,0,290.215,251.739Z" transform="translate(-127.498 -119.49)"/>
        <path id="Path_11" data-name="Path 11" d="M96.479,154.078c-4.837-1.135-10.334.311-10.565.373a.783.783,0,0,0,.2,1.54.8.8,0,0,0,.2-.027c.053-.015,5.345-1.407,9.8-.361a.783.783,0,1,0,.357-1.525Z" transform="translate(-33.945 -77.633)"/>
        <path id="Path_12" data-name="Path 12" d="M96.479,205.281c-4.837-1.134-10.334.311-10.565.373a.783.783,0,0,0,.2,1.54.8.8,0,0,0,.2-.027c.053-.015,5.345-1.407,9.8-.361a.783.783,0,1,0,.357-1.525Z" transform="translate(-33.945 -103.506)"/>
        <path id="Path_13" data-name="Path 13" d="M290.215,302.939a.784.784,0,0,0,1.054.342A67.162,67.162,0,0,1,298.2,300.2a.784.784,0,0,0-.473-1.495,67.2,67.2,0,0,0-7.169,3.183A.784.784,0,0,0,290.215,302.939Z" transform="translate(-127.498 -144.212)"/>
        <path id="Path_14" data-name="Path 14" d="M96.479,256.48c-4.837-1.134-10.334.31-10.565.373a.784.784,0,0,0,.2,1.541.8.8,0,0,0,.2-.027c.053-.015,5.345-1.407,9.8-.361a.783.783,0,1,0,.357-1.525Z" transform="translate(-33.945 -129.373)"/>
        <path id="Path_15" data-name="Path 15" d="M96.479,358.878c-4.837-1.135-10.334.311-10.565.373a.784.784,0,0,0,.2,1.541.793.793,0,0,0,.2-.027c.053-.015,5.345-1.407,9.8-.361a.783.783,0,1,0,.357-1.525Z" transform="translate(-33.945 -181.111)"/>
        <path id="Path_16" data-name="Path 16" d="M96.479,307.677c-4.837-1.135-10.334.31-10.565.373a.784.784,0,0,0,.2,1.541.793.793,0,0,0,.2-.027c.053-.015,5.345-1.407,9.8-.361a.783.783,0,1,0,.357-1.525Z" transform="translate(-33.945 -155.24)"/>
      </g>
    </g>
  </g>
</svg>
