<svg xmlns="http://www.w3.org/2000/svg" width="243" height="264.771" viewBox="0 0 243 264.771">
  <g id="painter" transform="translate(-19.554 0)">
    <path id="Path_17" data-name="Path 17" d="M258.379,256.421H236.3V190.734a4.146,4.146,0,0,0,1.66-1.176c11.347-13.317,2.694-23.493-1-27.838a20.623,20.623,0,0,1-1.444-1.806c-1.032-1.736-1.108-5.623-.834-7.819a4.175,4.175,0,0,0-6.832-3.727c-5.77,4.866-8.923,10.7-9.373,17.341-.858,12.673,8.74,23.446,9.148,23.9a4.115,4.115,0,0,0,.325.3v66.511H216.405v-8.555c0-19.592-5.225-34.713-15.529-44.944a45.939,45.939,0,0,0-30.289-13.068H149.672V176.528a58.594,58.594,0,0,0,26.956-22.745,69.1,69.1,0,0,0,9.921-24.987,4.151,4.151,0,0,0,.043-.6V127.3a14.733,14.733,0,0,0,7.51-4.479c5.912-6.545,5.568-16.872,5.147-21.007a10.82,10.82,0,0,0-4.119-7.639,11.989,11.989,0,0,0-2.015-1.263,19.692,19.692,0,0,0,10.05-4.407c7.45-6.315,7.446-16.542,7.442-16.937,0-8.648-3.5-17.225-10.409-25.494-5.82-6.967-13.912-13.565-24.053-19.61a154.6,154.6,0,0,0-18.259-9.235A15.355,15.355,0,0,0,151.235.657a4.175,4.175,0,1,0-4.494,7.038,6.737,6.737,0,0,1,3.186,6.373C139.34,10.177,128.757,7.536,119.744,6.7,91,4.031,69.356,13.516,59.554,22.45c-4.758,4.336-7.272,8.9-7.272,13.2,0,9.109,6.081,14.376,10.271,16.925a64.168,64.168,0,0,0-3.2,13.416c-1.255,10.319.676,19.089,5.583,25.767a13.73,13.73,0,0,0-5.241,2.421,10.817,10.817,0,0,0-4.118,7.64c-.421,4.136-.764,14.462,5.147,21.007a14.739,14.739,0,0,0,7.608,4.5v.872a4.147,4.147,0,0,0,.043.6,69.111,69.111,0,0,0,9.92,24.987,58.593,58.593,0,0,0,26.955,22.745v13.326H84.36a46.012,46.012,0,0,0-30.319,13.068c-10.3,10.231-15.529,25.352-15.529,44.944v8.555H23.729a4.175,4.175,0,0,0,0,8.351H258.379a4.175,4.175,0,1,0,0-8.35Zm-31.573-90.186a14.476,14.476,0,0,1,.732-3.666,11.971,11.971,0,0,0,.794,1.609,22.726,22.726,0,0,0,2.262,2.951c4.225,4.969,6.88,9.077,2.159,15.554C230.671,179.92,226.314,173.234,226.806,166.235Zm-38.9-49.01a6.613,6.613,0,0,1-1.313,1.118v-18.7A7.036,7.036,0,0,1,190,100.77a2.458,2.458,0,0,1,.935,1.893C191.437,107.529,190.9,113.909,187.9,117.226ZM65.179,28.622c12.8-11.663,36.238-15.238,53.792-13.608,15.344,1.425,36.6,8.91,52.9,18.624,11.349,6.766,30.388,20.691,30.388,37.946,0,.068-.066,6.843-4.534,10.589-2.588,2.169-6.328,3.02-11.13,2.544V77.741a4.173,4.173,0,0,0,4.737-6.872A163.025,163.025,0,0,0,147.8,48.807a4.146,4.146,0,0,0-1.192-.387A146.109,146.109,0,0,0,104.7,41.484C85.909,41.2,72.56,44.716,68.053,46.1c-2.385-1.2-7.421-4.459-7.421-10.455C60.632,34.255,61.826,31.678,65.179,28.622Zm4.316,50.96a4.168,4.168,0,0,0-.9,1.1c-3.245-10.3.7-22.391,2.359-26.718a115.927,115.927,0,0,1,32.719-4.132C88.6,51.785,82.693,55.069,81.844,55.583a4.175,4.175,0,0,0-2.013,3.572v11.6Zm-2.579,37.644c-3-3.317-3.533-9.7-3.036-14.563a2.457,2.457,0,0,1,.935-1.893,7.153,7.153,0,0,1,3.513-1.141v18.777A6.593,6.593,0,0,1,66.916,117.226Zm18.562,32.292a62.388,62.388,0,0,1-8.8-21.664V84.429l10.04-8.57a4.176,4.176,0,0,0,1.465-3.176V61.851a53.841,53.841,0,0,1,7.291-2.117c6.123-1.38,16.943-3.023,33.723-3.023h15.9a152.166,152.166,0,0,1,33.141,15.5v55.639a62.388,62.388,0,0,1-8.8,21.664c-9.358,14.362-23.352,22.26-41.594,23.476h-.775C108.83,171.778,94.836,163.88,85.478,149.518ZM109.422,198.2a4.175,4.175,0,0,0,4.175-4.175V179.294a71.072,71.072,0,0,0,13.068,2.042c.09.006.18.009.27.009h1.049c.09,0,.18,0,.27-.009a71.118,71.118,0,0,0,13.068-2.042v14.735A4.175,4.175,0,0,0,145.5,198.2h15.619A33.82,33.82,0,0,1,109.1,223.363c-2.842-1.84-6.063-.4-9.473,1.265.026-.1.051-.207.075-.3.989-3.979,1.843-7.416.055-9.962A33.542,33.542,0,0,1,93.8,198.2ZM46.864,247.866c0-49.089,35.922-49.661,37.467-49.661h1.087a41.841,41.841,0,0,0,7.017,20.241c-.107.947-.55,2.731-.832,3.867-1.116,4.491-2.08,8.37.6,10.935,2.987,2.854,7.056.86,10.645-.9.8-.391,2-.979,2.805-1.292A42.166,42.166,0,0,0,169.488,198.2h1.135a37.626,37.626,0,0,1,24.37,10.643c8.667,8.6,13.061,21.733,13.061,39.018v8.555H46.864Z" transform="translate(0 0)"/>
    <circle id="Ellipse_1" data-name="Ellipse 1" cx="0.901" cy="0.901" r="0.901" transform="translate(95.407 91.339)"/>
    <circle id="Ellipse_2" data-name="Ellipse 2" cx="0.901" cy="0.901" r="0.901" transform="translate(156.758 91.339)"/>
    <path id="Path_18" data-name="Path 18" d="M195.259,197.722h.389a1.813,1.813,0,0,0,1.811-1.811.755.755,0,1,0-1.509,0,.3.3,0,0,1-.3.3h-.389a.3.3,0,0,1-.3-.3.755.755,0,1,0-1.509,0A1.813,1.813,0,0,0,195.259,197.722Z" transform="translate(-69.114 -81.469)"/>
    <path id="Path_19" data-name="Path 19" d="M174.751,249.688a.755.755,0,1,0-1.175-.948c-.008.01-.915,1-3.318,1a5.887,5.887,0,0,1-3.773-1.088.755.755,0,0,0-1.013,1.119,7.31,7.31,0,0,0,4.785,1.478C173.4,251.25,174.622,249.848,174.751,249.688Z" transform="translate(-45.766 -103.124)"/>
  </g>
</svg>
